# Converted from giftbox.smd by smd2obj.pl (reference pose, no skinning).
mtllib giftbox.mtl
v -0.271033 -0.139899 -0.274553
v -0.271033 0.247082 -0.274553
v -0.041971 -0.139899 -0.274553
v -0.041971 -0.139899 -0.274553
v -0.271033 0.247082 -0.274553
v -0.041971 0.247082 -0.274553
v -0.271033 0.247082 0.053284
v -0.271033 0.247082 0.274553
v -0.041971 0.247082 0.053284
v -0.041971 0.247082 0.053284
v -0.271033 0.247082 0.274553
v -0.041971 0.247082 0.274553
v -0.271033 -0.139899 0.274553
v -0.271033 0.247082 0.274553
v -0.271033 -0.139899 0.053284
v -0.271033 -0.139899 0.053284
v -0.271033 0.247082 0.274553
v -0.271033 0.247082 0.053284
v 0.278073 0.247082 0.053284
v 0.278073 0.247082 0.274553
v 0.278073 -0.139899 0.053284
v 0.278073 -0.139899 0.053284
v 0.278073 0.247082 0.274553
v 0.278073 -0.139899 0.274553
v -0.271033 0.247082 0.274553
v -0.271033 -0.139899 0.274553
v -0.041971 0.247082 0.274553
v -0.041971 0.247082 0.274553
v -0.271033 -0.139899 0.274553
v -0.041971 -0.139899 0.274553
v -0.041971 -0.139899 0.053284
v -0.041971 -0.139899 0.274553
v -0.271033 -0.139899 0.053284
v -0.271033 -0.139899 0.053284
v -0.041971 -0.139899 0.274553
v -0.271033 -0.139899 0.274553
v -0.271033 -0.139899 -0.033797
v -0.271033 -0.139899 -0.274553
v -0.041971 -0.139899 -0.033797
v -0.041971 -0.139899 -0.033797
v -0.271033 -0.139899 -0.274553
v -0.041971 -0.139899 -0.274553
v 0.278073 -0.139899 -0.274553
v 0.278073 0.247082 -0.274553
v 0.278073 -0.139899 -0.033797
v 0.278073 -0.139899 -0.033797
v 0.278073 0.247082 -0.274553
v 0.278073 0.247082 -0.033797
v -0.271033 0.247082 -0.274553
v -0.271033 0.247082 -0.033797
v -0.041971 0.247082 -0.274553
v -0.041971 0.247082 -0.274553
v -0.271033 0.247082 -0.033797
v -0.041971 0.247082 -0.033797
v -0.271033 -0.139899 -0.274553
v -0.271033 -0.139899 -0.033797
v -0.271033 0.247082 -0.274553
v -0.271033 0.247082 -0.274553
v -0.271033 -0.139899 -0.033797
v -0.271033 0.247082 -0.033797
v 0.032489 0.247082 0.274553
v 0.278073 0.247082 0.274553
v 0.032489 0.247082 0.053284
v 0.032489 0.247082 0.053284
v 0.278073 0.247082 0.274553
v 0.278073 0.247082 0.053284
v 0.278073 0.247082 -0.274553
v 0.032489 0.247082 -0.274553
v 0.278073 0.247082 -0.033797
v 0.278073 0.247082 -0.033797
v 0.032489 0.247082 -0.274553
v 0.032489 0.247082 -0.033797
v 0.032489 -0.139899 -0.274553
v 0.032489 0.247082 -0.274553
v 0.278073 -0.139899 -0.274553
v 0.278073 -0.139899 -0.274553
v 0.032489 0.247082 -0.274553
v 0.278073 0.247082 -0.274553
v 0.278073 -0.139899 -0.033797
v 0.032489 -0.139899 -0.033797
v 0.278073 -0.139899 -0.274553
v 0.278073 -0.139899 -0.274553
v 0.032489 -0.139899 -0.033797
v 0.032489 -0.139899 -0.274553
v 0.278073 -0.139899 0.274553
v 0.032489 -0.139899 0.274553
v 0.278073 -0.139899 0.053284
v 0.278073 -0.139899 0.053284
v 0.032489 -0.139899 0.274553
v 0.032489 -0.139899 0.053284
v 0.032489 0.247082 0.274553
v 0.032489 -0.139899 0.274553
v 0.278073 0.247082 0.274553
v 0.278073 0.247082 0.274553
v 0.032489 -0.139899 0.274553
v 0.278073 -0.139899 0.274553
v -0.041971 -0.139899 0.274553
v 0.032489 -0.139899 0.274553
v -0.041971 0.247082 0.274553
v -0.041971 0.247082 0.274553
v 0.032489 -0.139899 0.274553
v 0.032489 0.247082 0.274553
v 0.032489 -0.139899 0.053284
v 0.032489 -0.139899 0.274553
v -0.041971 -0.139899 0.053284
v -0.041971 -0.139899 0.053284
v 0.032489 -0.139899 0.274553
v -0.041971 -0.139899 0.274553
v -0.271033 0.247082 -0.033797
v -0.271033 0.247082 0.053284
v -0.041971 0.247082 -0.033797
v -0.041971 0.247082 -0.033797
v -0.271033 0.247082 0.053284
v -0.041971 0.247082 0.053284
v -0.271033 0.247082 -0.033797
v -0.271033 -0.139899 -0.033797
v -0.271033 0.247082 0.053284
v -0.271033 0.247082 0.053284
v -0.271033 -0.139899 -0.033797
v -0.271033 -0.139899 0.053284
v -0.041971 -0.139899 -0.274553
v 0.032489 -0.139899 -0.274553
v -0.041971 -0.139899 -0.033797
v -0.041971 -0.139899 -0.033797
v 0.032489 -0.139899 -0.274553
v 0.032489 -0.139899 -0.033797
v -0.041971 -0.139899 -0.033797
v 0.032489 -0.139899 -0.033797
v -0.041971 -0.139899 0.053284
v -0.041971 -0.139899 0.053284
v 0.032489 -0.139899 -0.033797
v 0.032489 -0.139899 0.053284
v -0.271033 -0.139899 0.053284
v -0.271033 -0.139899 -0.033797
v -0.041971 -0.139899 0.053284
v -0.041971 -0.139899 0.053284
v -0.271033 -0.139899 -0.033797
v -0.041971 -0.139899 -0.033797
v 0.278073 -0.139899 -0.033797
v 0.278073 0.247082 -0.033797
v 0.278073 -0.139899 0.053284
v 0.278073 -0.139899 0.053284
v 0.278073 0.247082 -0.033797
v 0.278073 0.247082 0.053284
v 0.278073 0.247082 -0.033797
v 0.032489 0.247082 -0.033797
v 0.278073 0.247082 0.053284
v 0.278073 0.247082 0.053284
v 0.032489 0.247082 -0.033797
v 0.032489 0.247082 0.053284
v 0.278073 -0.139899 0.053284
v 0.032489 -0.139899 0.053284
v 0.278073 -0.139899 -0.033797
v 0.278073 -0.139899 -0.033797
v 0.032489 -0.139899 0.053284
v 0.032489 -0.139899 -0.033797
v -0.041971 0.247082 0.053284
v -0.041971 0.247082 0.274553
v 0.032489 0.247082 0.053284
v 0.032489 0.247082 0.053284
v -0.041971 0.247082 0.274553
v 0.032489 0.247082 0.274553
v -0.041971 0.247082 -0.033797
v -0.041971 0.247082 0.053284
v 0.032489 0.247082 -0.033797
v 0.032489 0.247082 -0.033797
v -0.041971 0.247082 0.053284
v 0.032489 0.247082 0.053284
v -0.041971 0.247082 -0.274553
v -0.041971 0.247082 -0.033797
v 0.032489 0.247082 -0.274553
v 0.032489 0.247082 -0.274553
v -0.041971 0.247082 -0.033797
v 0.032489 0.247082 -0.033797
v -0.041971 -0.139899 -0.274553
v -0.041971 0.247082 -0.274553
v 0.032489 -0.139899 -0.274553
v 0.032489 -0.139899 -0.274553
v -0.041971 0.247082 -0.274553
v 0.032489 0.247082 -0.274553
v 0.250356 0.342748 -0.045686
v 0.267256 0.309088 -0.045686
v 0.250356 0.342748 0.046302
v 0.250356 0.342748 0.046302
v 0.267256 0.309088 -0.045686
v 0.267256 0.309088 0.046302
v 0.195110 0.249251 -0.045686
v 0.007729 0.249251 -0.045686
v 0.195110 0.249251 0.046302
v 0.195110 0.249251 0.046302
v 0.007729 0.249251 -0.045686
v 0.007729 0.249251 0.046302
v 0.267256 0.309088 -0.045686
v 0.250791 0.271590 -0.045686
v 0.267256 0.309088 0.046302
v 0.267256 0.309088 0.046302
v 0.250791 0.271590 -0.045686
v 0.250791 0.271590 0.046302
v 0.194411 0.358451 -0.045686
v 0.194411 0.358451 0.046302
v 0.006056 0.249841 -0.045220
v 0.006056 0.249841 -0.045220
v 0.194411 0.358451 0.046302
v 0.008866 0.246703 0.048293
v 0.250791 0.271590 -0.045686
v 0.195110 0.249251 -0.045686
v 0.250791 0.271590 0.046302
v 0.250791 0.271590 0.046302
v 0.195110 0.249251 -0.045686
v 0.195110 0.249251 0.046302
v 0.194411 0.358451 -0.045686
v 0.250356 0.342748 -0.045686
v 0.194411 0.358451 0.046302
v 0.194411 0.358451 0.046302
v 0.250356 0.342748 -0.045686
v 0.250356 0.342748 0.046302
v 0.070880 0.342748 -0.237762
v 0.078233 0.309088 -0.252979
v 0.153706 0.342748 -0.197740
v 0.153706 0.342748 -0.197740
v 0.078233 0.309088 -0.252979
v 0.161058 0.309088 -0.212956
v 0.046844 0.249251 -0.188019
v -0.034682 0.249251 -0.019303
v 0.129669 0.249251 -0.147997
v 0.129669 0.249251 -0.147997
v -0.034682 0.249251 -0.019303
v 0.048143 0.249251 0.020719
v 0.078233 0.309088 -0.252979
v 0.071070 0.271590 -0.238154
v 0.161058 0.309088 -0.212956
v 0.161058 0.309088 -0.212956
v 0.071070 0.271590 -0.238154
v 0.153895 0.271590 -0.198132
v 0.046540 0.358451 -0.187390
v 0.129366 0.358451 -0.147369
v -0.034990 0.249841 -0.017594
v -0.034990 0.249841 -0.017594
v 0.129366 0.358451 -0.147369
v 0.050431 0.246703 0.020562
v 0.071070 0.271590 -0.238154
v 0.046844 0.249251 -0.188019
v 0.153895 0.271590 -0.198132
v 0.153895 0.271590 -0.198132
v 0.046844 0.249251 -0.188019
v 0.129669 0.249251 -0.147997
v 0.046540 0.358451 -0.187390
v 0.070880 0.342748 -0.237762
v 0.129366 0.358451 -0.147369
v 0.129366 0.358451 -0.147369
v 0.070880 0.342748 -0.237762
v 0.153706 0.342748 -0.197740
v -0.202442 0.342748 -0.129338
v -0.214834 0.309088 -0.140829
v -0.139894 0.342748 -0.196789
v -0.139894 0.342748 -0.196789
v -0.214834 0.309088 -0.140829
v -0.152286 0.309088 -0.208280
v -0.161932 0.249251 -0.091773
v -0.024534 0.249251 0.035636
v -0.099385 0.249251 -0.159224
v -0.099385 0.249251 -0.159224
v -0.024534 0.249251 0.035636
v 0.038013 0.249251 -0.031814
v -0.214834 0.309088 -0.140829
v -0.202761 0.271590 -0.129634
v -0.152286 0.309088 -0.208280
v -0.152286 0.309088 -0.208280
v -0.202761 0.271590 -0.129634
v -0.140214 0.271590 -0.197084
v -0.161420 0.358451 -0.091298
v -0.098873 0.358451 -0.158749
v -0.022990 0.249841 0.036432
v -0.022990 0.249841 0.036432
v -0.098873 0.358451 -0.158749
v 0.038533 0.246703 -0.034048
v -0.202761 0.271590 -0.129634
v -0.161932 0.249251 -0.091773
v -0.140214 0.271590 -0.197084
v -0.140214 0.271590 -0.197084
v -0.161932 0.249251 -0.091773
v -0.099385 0.249251 -0.159224
v -0.161420 0.358451 -0.091298
v -0.202442 0.342748 -0.129338
v -0.098873 0.358451 -0.158749
v -0.098873 0.358451 -0.158749
v -0.202442 0.342748 -0.129338
v -0.139894 0.342748 -0.196789
v -0.192780 0.342748 0.146327
v -0.208103 0.309088 0.153455
v -0.231581 0.342748 0.062922
v -0.231581 0.342748 0.062922
v -0.208103 0.309088 0.153455
v -0.246904 0.309088 0.070051
v -0.142689 0.249251 0.123023
v 0.027206 0.249251 0.043984
v -0.181490 0.249251 0.039619
v -0.181490 0.249251 0.039619
v 0.027206 0.249251 0.043984
v -0.011595 0.249251 -0.039420
v -0.208103 0.309088 0.153455
v -0.193174 0.271590 0.146510
v -0.246904 0.309088 0.070051
v -0.246904 0.309088 0.070051
v -0.193174 0.271590 0.146510
v -0.231976 0.271590 0.063106
v -0.142056 0.358451 0.122728
v -0.180858 0.358451 0.039325
v 0.028527 0.249841 0.042856
v 0.028527 0.249841 0.042856
v -0.180858 0.358451 0.039325
v -0.013467 0.246703 -0.040746
v -0.193174 0.271590 0.146510
v -0.142689 0.249251 0.123023
v -0.231976 0.271590 0.063106
v -0.231976 0.271590 0.063106
v -0.142689 0.249251 0.123023
v -0.181490 0.249251 0.039619
v -0.142056 0.358451 0.122728
v -0.192780 0.342748 0.146327
v -0.180858 0.358451 0.039325
v -0.180858 0.358451 0.039325
v -0.192780 0.342748 0.146327
v -0.231581 0.342748 0.062922
v 0.125629 0.342748 0.218606
v 0.130730 0.309088 0.234718
v 0.037931 0.342748 0.246368
v 0.037931 0.342748 0.246368
v 0.130730 0.309088 0.234718
v 0.043031 0.309088 0.262481
v 0.108955 0.249251 0.165936
v 0.052402 0.249251 -0.012707
v 0.021257 0.249251 0.193699
v 0.021257 0.249251 0.193699
v 0.052402 0.249251 -0.012707
v -0.035297 0.249251 0.015056
v 0.130730 0.309088 0.234718
v 0.125760 0.271590 0.219021
v 0.043031 0.309088 0.262481
v 0.043031 0.309088 0.262481
v 0.125760 0.271590 0.219021
v 0.038062 0.271590 0.246783
v 0.108744 0.358451 0.165271
v 0.021046 0.358451 0.193033
v 0.051452 0.249841 -0.014161
v 0.051452 0.249841 -0.014161
v 0.021046 0.358451 0.193033
v -0.036852 0.246703 0.016741
v 0.125760 0.271590 0.219021
v 0.108955 0.249251 0.165936
v 0.038062 0.271590 0.246783
v 0.038062 0.271590 0.246783
v 0.108955 0.249251 0.165936
v 0.021257 0.249251 0.193699
v 0.108744 0.358451 0.165271
v 0.125629 0.342748 0.218606
v 0.021046 0.358451 0.193033
v 0.021046 0.358451 0.193033
v 0.125629 0.342748 0.218606
v 0.037931 0.342748 0.246368
v -0.046811 0.207599 0.341447
v -0.045601 0.144801 0.401077
v 0.045166 0.207599 0.342893
v 0.045166 0.207599 0.342893
v -0.045601 0.144801 0.401077
v 0.046375 0.144801 0.402522
v 0.046704 0.249140 0.004667
v -0.045272 0.249140 0.003222
v 0.035672 0.251831 0.278190
v 0.035672 0.251831 0.278190
v -0.045272 0.249140 0.003222
v -0.056304 0.251831 0.276744
v -0.010309 0.112728 0.508629
v -0.049316 0.115359 0.456962
v -0.060803 0.109503 0.552771
v 0.045166 0.207599 0.342893
v 0.035672 0.251831 0.278190
v -0.046811 0.207599 0.341447
v -0.046811 0.207599 0.341447
v 0.035672 0.251831 0.278190
v -0.056304 0.251831 0.276744
v 0.046375 0.144801 0.402522
v -0.045601 0.144801 0.401077
v 0.042660 0.115359 0.458407
v 0.042660 0.115359 0.458407
v -0.045601 0.144801 0.401077
v -0.049316 0.115359 0.456962
v 0.033685 0.112978 0.560000
v 0.042660 0.115359 0.458407
v -0.010309 0.112728 0.508629
v -0.010309 0.112728 0.508629
v 0.042660 0.115359 0.458407
v -0.049316 0.115359 0.456962
v -0.333069 0.205879 -0.022671
v -0.392581 0.143081 -0.018745
v -0.330322 0.205879 0.069276
v -0.330322 0.205879 0.069276
v -0.392581 0.143081 -0.018745
v -0.389834 0.143081 0.073202
v 0.007622 0.247420 0.055401
v 0.004875 0.247420 -0.036545
v -0.266119 0.250111 0.056844
v -0.266119 0.250111 0.056844
v 0.004875 0.247420 -0.036545
v -0.268866 0.250111 -0.035103
v -0.498414 0.111008 0.021411
v -0.448578 0.113639 -0.019910
v -0.544812 0.107783 -0.027019
v -0.330322 0.205879 0.069276
v -0.266119 0.250111 0.056844
v -0.333069 0.205879 -0.022671
v -0.333069 0.205879 -0.022671
v -0.266119 0.250111 0.056844
v -0.268866 0.250111 -0.035103
v -0.389834 0.143081 0.073202
v -0.392581 0.143081 -0.018745
v -0.445831 0.113639 0.072037
v -0.445831 0.113639 0.072037
v -0.392581 0.143081 -0.018745
v -0.448578 0.113639 -0.019910
v -0.547727 0.111258 0.067700
v -0.445831 0.113639 0.072037
v -0.498414 0.111008 0.021411
v -0.498414 0.111008 0.021411
v -0.445831 0.113639 0.072037
v -0.448578 0.113639 -0.019910
vn 0.000000 0.000000 -1.000000
vn 0.000000 0.000000 -1.000000
vn 0.000000 0.000000 -1.000000
vn 0.000000 0.000000 -1.000000
vn 0.000000 0.000000 -1.000000
vn 0.000000 0.000000 -1.000000
vn 0.000000 1.000000 0.000000
vn 0.000000 1.000000 0.000000
vn 0.000000 1.000000 0.000000
vn 0.000000 1.000000 0.000000
vn 0.000000 1.000000 0.000000
vn 0.000000 1.000000 0.000000
vn -1.000000 0.000000 0.000000
vn -1.000000 0.000000 0.000000
vn -1.000000 0.000000 0.000000
vn -1.000000 0.000000 0.000000
vn -1.000000 0.000000 0.000000
vn -1.000000 0.000000 0.000000
vn 1.000000 0.000000 0.000000
vn 1.000000 0.000000 0.000000
vn 1.000000 0.000000 0.000000
vn 1.000000 0.000000 0.000000
vn 1.000000 0.000000 0.000000
vn 1.000000 0.000000 0.000000
vn 0.000000 0.000000 1.000000
vn 0.000000 0.000000 1.000000
vn 0.000000 0.000000 1.000000
vn 0.000000 0.000000 1.000000
vn 0.000000 0.000000 1.000000
vn 0.000000 0.000000 1.000000
vn 0.000000 -1.000000 0.000000
vn 0.000000 -1.000000 0.000000
vn 0.000000 -1.000000 0.000000
vn 0.000000 -1.000000 0.000000
vn 0.000000 -1.000000 0.000000
vn 0.000000 -1.000000 0.000000
vn 0.000000 -1.000000 0.000000
vn 0.000000 -1.000000 0.000000
vn 0.000000 -1.000000 0.000000
vn 0.000000 -1.000000 0.000000
vn 0.000000 -1.000000 0.000000
vn 0.000000 -1.000000 0.000000
vn 1.000000 0.000000 0.000000
vn 1.000000 0.000000 0.000000
vn 1.000000 0.000000 0.000000
vn 1.000000 0.000000 0.000000
vn 1.000000 0.000000 0.000000
vn 1.000000 0.000000 0.000000
vn 0.000000 1.000000 0.000000
vn 0.000000 1.000000 0.000000
vn 0.000000 1.000000 0.000000
vn 0.000000 1.000000 0.000000
vn 0.000000 1.000000 0.000000
vn 0.000000 1.000000 0.000000
vn -1.000000 0.000000 0.000000
vn -1.000000 0.000000 0.000000
vn -1.000000 0.000000 0.000000
vn -1.000000 0.000000 0.000000
vn -1.000000 0.000000 0.000000
vn -1.000000 0.000000 0.000000
vn 0.000000 1.000000 0.000000
vn 0.000000 1.000000 0.000000
vn 0.000000 1.000000 0.000000
vn 0.000000 1.000000 0.000000
vn 0.000000 1.000000 0.000000
vn 0.000000 1.000000 0.000000
vn 0.000000 1.000000 0.000000
vn 0.000000 1.000000 0.000000
vn 0.000000 1.000000 0.000000
vn 0.000000 1.000000 0.000000
vn 0.000000 1.000000 0.000000
vn 0.000000 1.000000 0.000000
vn 0.000000 0.000000 -1.000000
vn 0.000000 0.000000 -1.000000
vn 0.000000 0.000000 -1.000000
vn 0.000000 0.000000 -1.000000
vn 0.000000 0.000000 -1.000000
vn 0.000000 0.000000 -1.000000
vn 0.000000 -1.000000 0.000000
vn 0.000000 -1.000000 0.000000
vn 0.000000 -1.000000 0.000000
vn 0.000000 -1.000000 0.000000
vn 0.000000 -1.000000 0.000000
vn 0.000000 -1.000000 0.000000
vn 0.000000 -1.000000 0.000000
vn 0.000000 -1.000000 0.000000
vn 0.000000 -1.000000 0.000000
vn 0.000000 -1.000000 0.000000
vn 0.000000 -1.000000 0.000000
vn 0.000000 -1.000000 0.000000
vn 0.000000 0.000000 1.000000
vn 0.000000 0.000000 1.000000
vn 0.000000 0.000000 1.000000
vn 0.000000 0.000000 1.000000
vn 0.000000 0.000000 1.000000
vn 0.000000 0.000000 1.000000
vn 0.000000 0.000000 1.000000
vn 0.000000 0.000000 1.000000
vn 0.000000 0.000000 1.000000
vn 0.000000 0.000000 1.000000
vn 0.000000 0.000000 1.000000
vn 0.000000 0.000000 1.000000
vn 0.000000 -1.000000 0.000000
vn 0.000000 -1.000000 0.000000
vn 0.000000 -1.000000 0.000000
vn 0.000000 -1.000000 0.000000
vn 0.000000 -1.000000 0.000000
vn 0.000000 -1.000000 0.000000
vn 0.000000 1.000000 0.000000
vn 0.000000 1.000000 0.000000
vn 0.000000 1.000000 0.000000
vn 0.000000 1.000000 0.000000
vn 0.000000 1.000000 0.000000
vn 0.000000 1.000000 0.000000
vn -1.000000 0.000000 0.000000
vn -1.000000 0.000000 0.000000
vn -1.000000 0.000000 0.000000
vn -1.000000 0.000000 0.000000
vn -1.000000 0.000000 0.000000
vn -1.000000 0.000000 0.000000
vn 0.000000 -1.000000 0.000000
vn 0.000000 -1.000000 0.000000
vn 0.000000 -1.000000 0.000000
vn 0.000000 -1.000000 0.000000
vn 0.000000 -1.000000 0.000000
vn 0.000000 -1.000000 0.000000
vn 0.000000 -1.000000 0.000000
vn 0.000000 -1.000000 0.000000
vn 0.000000 -1.000000 0.000000
vn 0.000000 -1.000000 0.000000
vn 0.000000 -1.000000 0.000000
vn 0.000000 -1.000000 0.000000
vn 0.000000 -1.000000 0.000000
vn 0.000000 -1.000000 0.000000
vn 0.000000 -1.000000 0.000000
vn 0.000000 -1.000000 0.000000
vn 0.000000 -1.000000 0.000000
vn 0.000000 -1.000000 0.000000
vn 1.000000 0.000000 0.000000
vn 1.000000 0.000000 0.000000
vn 1.000000 0.000000 0.000000
vn 1.000000 0.000000 0.000000
vn 1.000000 0.000000 0.000000
vn 1.000000 0.000000 0.000000
vn 0.000000 1.000000 0.000000
vn 0.000000 1.000000 0.000000
vn 0.000000 1.000000 0.000000
vn 0.000000 1.000000 0.000000
vn 0.000000 1.000000 0.000000
vn 0.000000 1.000000 0.000000
vn 0.000000 -1.000000 0.000000
vn 0.000000 -1.000000 0.000000
vn 0.000000 -1.000000 0.000000
vn 0.000000 -1.000000 0.000000
vn 0.000000 -1.000000 0.000000
vn 0.000000 -1.000000 0.000000
vn 0.000000 1.000000 0.000000
vn 0.000000 1.000000 0.000000
vn 0.000000 1.000000 0.000000
vn 0.000000 1.000000 0.000000
vn 0.000000 1.000000 0.000000
vn 0.000000 1.000000 0.000000
vn 0.000000 1.000000 0.000000
vn 0.000000 1.000000 0.000000
vn 0.000000 1.000000 0.000000
vn 0.000000 1.000000 0.000000
vn 0.000000 1.000000 0.000000
vn 0.000000 1.000000 0.000000
vn 0.000000 1.000000 0.000000
vn 0.000000 1.000000 0.000000
vn 0.000000 1.000000 0.000000
vn 0.000000 1.000000 0.000000
vn 0.000000 1.000000 0.000000
vn 0.000000 1.000000 0.000000
vn 0.000000 0.000000 -1.000000
vn 0.000000 0.000000 -1.000000
vn 0.000000 0.000000 -1.000000
vn 0.000000 0.000000 -1.000000
vn 0.000000 0.000000 -1.000000
vn 0.000000 0.000000 -1.000000
vn -0.560976 -0.827832 0.000000
vn -0.999981 -0.006120 0.000000
vn -0.560976 -0.827832 0.000000
vn -0.560976 -0.827832 0.000000
vn -0.999981 -0.006120 0.000000
vn -0.999981 -0.006120 0.000000
vn -0.091521 0.995803 0.000000
vn 0.000000 1.000000 0.000000
vn -0.091521 0.995803 0.000000
vn -0.091521 0.995803 0.000000
vn 0.000000 1.000000 0.000000
vn 0.000000 1.000000 0.000000
vn -0.999981 -0.006120 0.000000
vn -0.638390 0.769713 0.000000
vn -0.999981 -0.006120 0.000000
vn -0.999981 -0.006120 0.000000
vn -0.638390 0.769713 0.000000
vn -0.638390 0.769713 0.000000
vn 0.363206 -0.931524 -0.018558
vn 0.363206 -0.931524 -0.018558
vn 0.507498 -0.861365 -0.022260
vn 0.507498 -0.861365 -0.022260
vn 0.363206 -0.931524 -0.018558
vn 0.507498 -0.861365 -0.022260
vn -0.638390 0.769713 0.000000
vn -0.091521 0.995803 0.000000
vn -0.638390 0.769713 0.000000
vn -0.638390 0.769713 0.000000
vn -0.091521 0.995803 0.000000
vn -0.091521 0.995803 0.000000
vn 0.363206 -0.931524 -0.018558
vn -0.560976 -0.827832 0.000000
vn 0.363206 -0.931524 -0.018558
vn 0.363206 -0.931524 -0.018558
vn -0.560976 -0.827832 0.000000
vn -0.560976 -0.827832 0.000000
vn -0.244070 -0.827832 0.505098
vn -0.435073 -0.006119 0.900374
vn -0.244070 -0.827832 0.505098
vn -0.244070 -0.827832 0.505098
vn -0.435073 -0.006119 0.900374
vn -0.435073 -0.006119 0.900374
vn -0.039819 0.995803 0.082405
vn 0.000000 1.000000 0.000000
vn -0.039819 0.995803 0.082405
vn -0.039819 0.995803 0.082405
vn 0.000000 1.000000 0.000000
vn 0.000000 1.000000 0.000000
vn -0.435073 -0.006119 0.900374
vn -0.277752 0.769713 0.574801
vn -0.435073 -0.006119 0.900374
vn -0.435073 -0.006119 0.900374
vn -0.277752 0.769713 0.574801
vn -0.277752 0.769713 0.574801
vn 0.141315 -0.931524 -0.335102
vn 0.141315 -0.931524 -0.335102
vn 0.200760 -0.861365 -0.466632
vn 0.200760 -0.861365 -0.466632
vn 0.141315 -0.931524 -0.335102
vn 0.200760 -0.861365 -0.466632
vn -0.277752 0.769713 0.574801
vn -0.039819 0.995803 0.082405
vn -0.277752 0.769713 0.574801
vn -0.277752 0.769713 0.574801
vn -0.039819 0.995803 0.082405
vn -0.039819 0.995803 0.082405
vn 0.141315 -0.931524 -0.335102
vn -0.244070 -0.827832 0.505098
vn 0.141315 -0.931524 -0.335102
vn 0.141315 -0.931524 -0.335102
vn -0.244070 -0.827832 0.505098
vn -0.244070 -0.827832 0.505098
vn 0.411339 -0.827832 0.381436
vn 0.733243 -0.006120 0.679939
vn 0.411339 -0.827832 0.381436
vn 0.411339 -0.827832 0.381436
vn 0.733243 -0.006120 0.679939
vn 0.733243 -0.006120 0.679939
vn 0.067109 0.995803 0.062230
vn 0.000000 1.000000 0.000000
vn 0.067109 0.995803 0.062230
vn 0.067109 0.995803 0.062230
vn 0.000000 1.000000 0.000000
vn 0.000000 1.000000 0.000000
vn 0.733243 -0.006120 0.679939
vn 0.468104 0.769713 0.434074
vn 0.733243 -0.006120 0.679939
vn 0.733243 -0.006120 0.679939
vn 0.468104 0.769713 0.434074
vn 0.468104 0.769713 0.434074
vn -0.278942 -0.931524 -0.233355
vn -0.278942 -0.931524 -0.233355
vn -0.387262 -0.861365 -0.328752
vn -0.387262 -0.861365 -0.328752
vn -0.278942 -0.931524 -0.233355
vn -0.387262 -0.861365 -0.328752
vn 0.468104 0.769713 0.434074
vn 0.067109 0.995803 0.062230
vn 0.468104 0.769713 0.434074
vn 0.468104 0.769713 0.434074
vn 0.067109 0.995803 0.062230
vn 0.067109 0.995803 0.062230
vn -0.278942 -0.931524 -0.233355
vn 0.411339 -0.827832 0.381436
vn -0.278942 -0.931524 -0.233355
vn -0.278942 -0.931524 -0.233355
vn 0.411339 -0.827832 0.381436
vn 0.411339 -0.827832 0.381436
vn 0.508629 -0.827832 -0.236625
vn 0.906668 -0.006120 -0.421801
vn 0.508629 -0.827832 -0.236625
vn 0.508629 -0.827832 -0.236625
vn 0.906668 -0.006120 -0.421801
vn 0.906668 -0.006120 -0.421801
vn 0.082981 0.995803 -0.038604
vn 0.000000 1.000000 0.000000
vn 0.082981 0.995803 -0.038604
vn 0.082981 0.995803 -0.038604
vn 0.000000 1.000000 0.000000
vn 0.000000 1.000000 0.000000
vn 0.906668 -0.006120 -0.421801
vn 0.578819 0.769713 -0.269278
vn 0.906668 -0.006120 -0.421801
vn 0.906668 -0.006120 -0.421801
vn 0.578819 0.769713 -0.269278
vn 0.578819 0.769713 -0.269278
vn -0.321485 -0.931524 0.170030
vn -0.321485 -0.931524 0.170030
vn -0.450751 -0.861365 0.234250
vn -0.450751 -0.861365 0.234250
vn -0.321485 -0.931524 0.170030
vn -0.450751 -0.861365 0.234250
vn 0.578819 0.769713 -0.269278
vn 0.082981 0.995803 -0.038604
vn 0.578819 0.769713 -0.269278
vn 0.578819 0.769713 -0.269278
vn 0.082981 0.995803 -0.038604
vn 0.082981 0.995803 -0.038604
vn -0.321485 -0.931524 0.170030
vn 0.508629 -0.827832 -0.236625
vn -0.321485 -0.931524 0.170030
vn -0.321485 -0.931524 0.170030
vn 0.508629 -0.827832 -0.236625
vn 0.508629 -0.827832 -0.236625
vn -0.169308 -0.827832 -0.534817
vn -0.301804 -0.006120 -0.953350
vn -0.169308 -0.827832 -0.534817
vn -0.169308 -0.827832 -0.534817
vn -0.301804 -0.006120 -0.953350
vn -0.301804 -0.006120 -0.953350
vn -0.027622 0.995803 -0.087253
vn 0.000000 1.000000 0.000000
vn -0.027622 0.995803 -0.087253
vn -0.027622 0.995803 -0.087253
vn 0.000000 1.000000 0.000000
vn 0.000000 1.000000 0.000000
vn -0.301804 -0.006120 -0.953350
vn -0.192672 0.769713 -0.608621
vn -0.301804 -0.006120 -0.953350
vn -0.301804 -0.006120 -0.953350
vn -0.192672 0.769713 -0.608621
vn -0.192672 0.769713 -0.608621
vn 0.127312 -0.931524 0.340668
vn 0.127312 -0.931524 0.340668
vn 0.174390 -0.861365 0.477114
vn 0.174390 -0.861365 0.477114
vn 0.127312 -0.931524 0.340668
vn 0.174390 -0.861365 0.477114
vn -0.192672 0.769713 -0.608621
vn -0.027622 0.995803 -0.087253
vn -0.192672 0.769713 -0.608621
vn -0.192672 0.769713 -0.608621
vn -0.027622 0.995803 -0.087253
vn -0.027622 0.995803 -0.087253
vn 0.127312 -0.931524 0.340668
vn -0.169308 -0.827832 -0.534817
vn 0.127312 -0.931524 0.340668
vn 0.127312 -0.931524 0.340668
vn -0.169308 -0.827832 -0.534817
vn -0.169308 -0.827832 -0.534817
vn -0.010197 0.760746 0.648970
vn -0.009790 0.782128 0.623041
vn -0.010197 0.760746 0.648970
vn -0.010197 0.760746 0.648970
vn -0.009790 0.782128 0.623041
vn -0.009790 0.782128 0.623041
vn 0.000154 0.999952 -0.009831
vn 0.000154 0.999952 -0.009831
vn -0.002026 0.991648 0.128957
vn -0.002026 0.991648 0.128957
vn 0.000154 0.999952 -0.009831
vn -0.001797 0.993434 0.114392
vn -0.014924 0.998966 0.042956
vn -0.006918 0.936967 0.349348
vn -0.011631 0.998154 0.059615
vn -0.010197 0.760746 0.648970
vn -0.002026 0.991648 0.128957
vn -0.010197 0.760746 0.648970
vn -0.010197 0.760746 0.648970
vn -0.002026 0.991648 0.128957
vn -0.001797 0.993434 0.114392
vn -0.009790 0.782128 0.623041
vn -0.009790 0.782128 0.623041
vn -0.006918 0.936967 0.349348
vn -0.006918 0.936967 0.349348
vn -0.009790 0.782128 0.623041
vn -0.006918 0.936967 0.349348
vn -0.029945 0.999336 0.020776
vn -0.006918 0.936967 0.349348
vn -0.014924 0.998966 0.042956
vn -0.014924 0.998966 0.042956
vn -0.006918 0.936967 0.349348
vn -0.006918 0.936967 0.349348
vn -0.648760 0.760746 0.019384
vn -0.622840 0.782128 0.018609
vn -0.648760 0.760746 0.019384
vn -0.648760 0.760746 0.019384
vn -0.622840 0.782128 0.018609
vn -0.622840 0.782128 0.018609
vn 0.009828 0.999952 -0.000294
vn 0.009828 0.999952 -0.000294
vn -0.128915 0.991648 0.003852
vn -0.128915 0.991648 0.003852
vn 0.009828 0.999952 -0.000294
vn -0.114355 0.993434 0.003417
vn -0.043592 0.998966 -0.012951
vn -0.349301 0.936967 0.009007
vn -0.060084 0.998154 -0.008902
vn -0.648760 0.760746 0.019384
vn -0.128915 0.991648 0.003852
vn -0.648760 0.760746 0.019384
vn -0.648760 0.760746 0.019384
vn -0.128915 0.991648 0.003852
vn -0.114355 0.993434 0.003417
vn -0.622840 0.782128 0.018609
vn -0.622840 0.782128 0.018609
vn -0.349301 0.936967 0.009007
vn -0.349301 0.936967 0.009007
vn -0.622840 0.782128 0.018609
vn -0.349301 0.936967 0.009007
vn -0.022120 0.999336 -0.028968
vn -0.349301 0.936967 0.009007
vn -0.043592 0.998966 -0.012951
vn -0.043592 0.998966 -0.012951
vn -0.349301 0.936967 0.009007
vn -0.349301 0.936967 0.009007
vt 0.999999 0.000000
vt 0.999999 1.000000
vt 0.582844 0.000000
vt 0.582844 0.000000
vt 0.999999 1.000000
vt 0.582844 1.000000
vt 0.628705 0.363511
vt 0.628705 0.571699
vt 0.413185 0.363511
vt 0.413185 0.363511
vt 0.628705 0.571699
vt 0.413185 0.571699
vt 0.999999 0.000000
vt 0.999999 1.000000
vt 0.597038 0.000000
vt 0.597038 0.000000
vt 0.999999 1.000000
vt 0.597038 1.000000
vt 0.597038 1.000000
vt 0.999999 1.000000
vt 0.597038 0.000000
vt 0.597038 0.000000
vt 0.999999 1.000000
vt 0.999999 0.000000
vt 0.999999 1.000000
vt 0.999999 0.000000
vt 0.582844 1.000000
vt 0.582844 1.000000
vt 0.999999 0.000000
vt 0.582844 0.000000
vt 0.413185 0.363511
vt 0.413185 0.571699
vt 0.628705 0.363511
vt 0.628705 0.363511
vt 0.413185 0.571699
vt 0.628705 0.571699
vt 0.628705 0.281578
vt 0.628705 0.055056
vt 0.413185 0.281578
vt 0.413185 0.281578
vt 0.628705 0.055056
vt 0.413185 0.055056
vt 0.000000 0.000000
vt 0.000000 1.000000
vt 0.438451 0.000000
vt 0.438451 0.000000
vt 0.000000 1.000000
vt 0.438451 1.000000
vt 0.628705 0.055056
vt 0.628705 0.281578
vt 0.413185 0.055056
vt 0.413185 0.055056
vt 0.628705 0.281578
vt 0.413185 0.281578
vt 0.000000 0.000000
vt 0.438451 0.000000
vt 0.000000 1.000000
vt 0.000000 1.000000
vt 0.438451 0.000000
vt 0.438451 1.000000
vt 0.343126 0.571699
vt 0.112062 0.571699
vt 0.343126 0.363511
vt 0.343126 0.363511
vt 0.112062 0.571699
vt 0.112062 0.363511
vt 0.112062 0.055056
vt 0.343126 0.055056
vt 0.112062 0.281578
vt 0.112062 0.281578
vt 0.343126 0.055056
vt 0.343126 0.281578
vt 0.447242 0.000000
vt 0.447242 1.000000
vt 0.000000 0.000000
vt 0.000000 0.000000
vt 0.447242 1.000000
vt 0.000000 1.000000
vt 0.112062 0.281578
vt 0.343126 0.281578
vt 0.112062 0.055056
vt 0.112062 0.055056
vt 0.343126 0.281578
vt 0.343126 0.055056
vt 0.112062 0.571699
vt 0.343126 0.571699
vt 0.112062 0.363511
vt 0.112062 0.363511
vt 0.343126 0.571699
vt 0.343126 0.363511
vt 0.447242 1.000000
vt 0.447242 0.000000
vt 0.000000 1.000000
vt 0.000000 1.000000
vt 0.447242 0.000000
vt 0.000000 0.000000
vt 0.531250 0.750000
vt 0.437500 0.750000
vt 0.531250 0.500000
vt 0.531250 0.500000
vt 0.437500 0.750000
vt 0.437500 0.500000
vt 0.437500 0.875000
vt 0.437500 0.750000
vt 0.531250 0.875000
vt 0.531250 0.875000
vt 0.437500 0.750000
vt 0.531250 0.750000
vt 0.625000 0.312500
vt 0.625000 0.375000
vt 0.531250 0.312500
vt 0.531250 0.312500
vt 0.625000 0.375000
vt 0.531250 0.375000
vt 0.687500 0.250000
vt 0.687500 0.000000
vt 0.750000 0.250000
vt 0.750000 0.250000
vt 0.687500 0.000000
vt 0.750000 0.000000
vt 0.531250 1.000000
vt 0.437500 1.000000
vt 0.531250 0.937500
vt 0.531250 0.937500
vt 0.437500 1.000000
vt 0.437500 0.937500
vt 0.531250 0.937500
vt 0.437500 0.937500
vt 0.531250 0.875000
vt 0.531250 0.875000
vt 0.437500 0.937500
vt 0.437500 0.875000
vt 0.625000 0.875000
vt 0.625000 0.937500
vt 0.531250 0.875000
vt 0.531250 0.875000
vt 0.625000 0.937500
vt 0.531250 0.937500
vt 0.312500 0.000000
vt 0.312500 0.250000
vt 0.250000 0.000000
vt 0.250000 0.000000
vt 0.312500 0.250000
vt 0.250000 0.250000
vt 0.375000 0.312500
vt 0.437500 0.312500
vt 0.375000 0.375000
vt 0.375000 0.375000
vt 0.437500 0.312500
vt 0.437500 0.375000
vt 0.375000 0.875000
vt 0.437500 0.875000
vt 0.375000 0.937500
vt 0.375000 0.937500
vt 0.437500 0.875000
vt 0.437500 0.937500
vt 0.531250 0.375000
vt 0.531250 0.500000
vt 0.437500 0.375000
vt 0.437500 0.375000
vt 0.531250 0.500000
vt 0.437500 0.500000
vt 0.531250 0.312500
vt 0.531250 0.375000
vt 0.437500 0.312500
vt 0.437500 0.312500
vt 0.531250 0.375000
vt 0.437500 0.375000
vt 0.531250 0.250000
vt 0.531250 0.312500
vt 0.437500 0.250000
vt 0.437500 0.250000
vt 0.531250 0.312500
vt 0.437500 0.312500
vt 0.531250 0.000000
vt 0.531250 0.250000
vt 0.437500 0.000000
vt 0.437500 0.000000
vt 0.531250 0.250000
vt 0.437500 0.250000
vt 0.375000 0.000000
vt 0.500000 0.000000
vt 0.375000 0.600000
vt 0.375000 0.600000
vt 0.500000 0.000000
vt 0.500000 0.600000
vt 0.875000 0.000000
vt 1.000000 0.000000
vt 0.875000 0.600000
vt 0.875000 0.600000
vt 1.000000 0.000000
vt 1.000000 0.600000
vt 0.500000 0.000000
vt 0.750000 0.000000
vt 0.500000 0.600000
vt 0.500000 0.600000
vt 0.750000 0.000000
vt 0.750000 0.600000
vt 0.250000 0.000000
vt 0.250000 0.600000
vt 0.000000 0.000000
vt 0.000000 0.000000
vt 0.250000 0.600000
vt 0.000000 0.600000
vt 0.750000 0.000000
vt 0.875000 0.000000
vt 0.750000 0.600000
vt 0.750000 0.600000
vt 0.875000 0.000000
vt 0.875000 0.600000
vt 0.250000 0.000000
vt 0.375000 0.000000
vt 0.250000 0.600000
vt 0.250000 0.600000
vt 0.375000 0.000000
vt 0.375000 0.600000
vt 0.375000 0.000000
vt 0.500000 0.000000
vt 0.375000 0.600000
vt 0.375000 0.600000
vt 0.500000 0.000000
vt 0.500000 0.600000
vt 0.875000 0.000000
vt 1.000000 0.000000
vt 0.875000 0.600000
vt 0.875000 0.600000
vt 1.000000 0.000000
vt 1.000000 0.600000
vt 0.500000 0.000000
vt 0.750000 0.000000
vt 0.500000 0.600000
vt 0.500000 0.600000
vt 0.750000 0.000000
vt 0.750000 0.600000
vt 0.250000 0.000000
vt 0.250000 0.600000
vt 0.000000 0.000000
vt 0.000000 0.000000
vt 0.250000 0.600000
vt 0.000000 0.600000
vt 0.750000 0.000000
vt 0.875000 0.000000
vt 0.750000 0.600000
vt 0.750000 0.600000
vt 0.875000 0.000000
vt 0.875000 0.600000
vt 0.250000 0.000000
vt 0.375000 0.000000
vt 0.250000 0.600000
vt 0.250000 0.600000
vt 0.375000 0.000000
vt 0.375000 0.600000
vt 0.375000 0.000000
vt 0.500000 0.000000
vt 0.375000 0.600000
vt 0.375000 0.600000
vt 0.500000 0.000000
vt 0.500000 0.600000
vt 0.875000 0.000000
vt 1.000000 0.000000
vt 0.875000 0.600000
vt 0.875000 0.600000
vt 1.000000 0.000000
vt 1.000000 0.600000
vt 0.500000 0.000000
vt 0.750000 0.000000
vt 0.500000 0.600000
vt 0.500000 0.600000
vt 0.750000 0.000000
vt 0.750000 0.600000
vt 0.250000 0.000000
vt 0.250000 0.600000
vt 0.000000 0.000000
vt 0.000000 0.000000
vt 0.250000 0.600000
vt 0.000000 0.600000
vt 0.750000 0.000000
vt 0.875000 0.000000
vt 0.750000 0.600000
vt 0.750000 0.600000
vt 0.875000 0.000000
vt 0.875000 0.600000
vt 0.250000 0.000000
vt 0.375000 0.000000
vt 0.250000 0.600000
vt 0.250000 0.600000
vt 0.375000 0.000000
vt 0.375000 0.600000
vt 0.375000 0.000000
vt 0.500000 0.000000
vt 0.375000 0.600000
vt 0.375000 0.600000
vt 0.500000 0.000000
vt 0.500000 0.600000
vt 0.875000 0.000000
vt 1.000000 0.000000
vt 0.875000 0.600000
vt 0.875000 0.600000
vt 1.000000 0.000000
vt 1.000000 0.600000
vt 0.500000 0.000000
vt 0.750000 0.000000
vt 0.500000 0.600000
vt 0.500000 0.600000
vt 0.750000 0.000000
vt 0.750000 0.600000
vt 0.250000 0.000000
vt 0.250000 0.600000
vt 0.000000 0.000000
vt 0.000000 0.000000
vt 0.250000 0.600000
vt 0.000000 0.600000
vt 0.750000 0.000000
vt 0.875000 0.000000
vt 0.750000 0.600000
vt 0.750000 0.600000
vt 0.875000 0.000000
vt 0.875000 0.600000
vt 0.250000 0.000000
vt 0.375000 0.000000
vt 0.250000 0.600000
vt 0.250000 0.600000
vt 0.375000 0.000000
vt 0.375000 0.600000
vt 0.375000 0.000000
vt 0.500000 0.000000
vt 0.375000 0.600000
vt 0.375000 0.600000
vt 0.500000 0.000000
vt 0.500000 0.600000
vt 0.875000 0.000000
vt 1.000000 0.000000
vt 0.875000 0.600000
vt 0.875000 0.600000
vt 1.000000 0.000000
vt 1.000000 0.600000
vt 0.500000 0.000000
vt 0.750000 0.000000
vt 0.500000 0.600000
vt 0.500000 0.600000
vt 0.750000 0.000000
vt 0.750000 0.600000
vt 0.250000 0.000000
vt 0.250000 0.600000
vt 0.000000 0.000000
vt 0.000000 0.000000
vt 0.250000 0.600000
vt 0.000000 0.600000
vt 0.750000 0.000000
vt 0.875000 0.000000
vt 0.750000 0.600000
vt 0.750000 0.600000
vt 0.875000 0.000000
vt 0.875000 0.600000
vt 0.250000 0.000000
vt 0.375000 0.000000
vt 0.250000 0.600000
vt 0.250000 0.600000
vt 0.375000 0.000000
vt 0.375000 0.600000
vt 0.750000 0.600000
vt 0.375000 0.600000
vt 0.750000 0.000000
vt 0.750000 0.000000
vt 0.375000 0.600000
vt 0.375000 0.000000
vt 1.000000 0.000000
vt 1.000000 0.600000
vt 0.875000 0.000000
vt 0.875000 0.000000
vt 1.000000 0.600000
vt 0.875000 0.600000
vt 0.000000 0.300000
vt 0.250000 0.600000
vt 0.000000 0.600000
vt 0.750000 0.000000
vt 0.875000 0.000000
vt 0.750000 0.600000
vt 0.750000 0.600000
vt 0.875000 0.000000
vt 0.875000 0.600000
vt 0.375000 0.000000
vt 0.375000 0.600000
vt 0.250000 0.000000
vt 0.250000 0.000000
vt 0.375000 0.600000
vt 0.250000 0.600000
vt 0.000000 0.000000
vt 0.250000 0.000000
vt 0.000000 0.300000
vt 0.000000 0.300000
vt 0.250000 0.000000
vt 0.250000 0.600000
vt 0.750000 0.600000
vt 0.375000 0.600000
vt 0.750000 0.000000
vt 0.750000 0.000000
vt 0.375000 0.600000
vt 0.375000 0.000000
vt 1.000000 0.000000
vt 1.000000 0.600000
vt 0.875000 0.000000
vt 0.875000 0.000000
vt 1.000000 0.600000
vt 0.875000 0.600000
vt 0.000000 0.300000
vt 0.250000 0.600000
vt 0.000000 0.600000
vt 0.750000 0.000000
vt 0.875000 0.000000
vt 0.750000 0.600000
vt 0.750000 0.600000
vt 0.875000 0.000000
vt 0.875000 0.600000
vt 0.375000 0.000000
vt 0.375000 0.600000
vt 0.250000 0.000000
vt 0.250000 0.000000
vt 0.375000 0.600000
vt 0.250000 0.600000
vt 0.000000 0.000000
vt 0.250000 0.000000
vt 0.000000 0.300000
vt 0.000000 0.300000
vt 0.250000 0.000000
vt 0.250000 0.600000
g box
usemtl box
f 1/1/1 2/2/2 3/3/3
f 4/4/4 5/5/5 6/6/6
f 7/7/7 8/8/8 9/9/9
f 10/10/10 11/11/11 12/12/12
f 13/13/13 14/14/14 15/15/15
f 16/16/16 17/17/17 18/18/18
f 19/19/19 20/20/20 21/21/21
f 22/22/22 23/23/23 24/24/24
f 25/25/25 26/26/26 27/27/27
f 28/28/28 29/29/29 30/30/30
f 31/31/31 32/32/32 33/33/33
f 34/34/34 35/35/35 36/36/36
f 37/37/37 38/38/38 39/39/39
f 40/40/40 41/41/41 42/42/42
f 43/43/43 44/44/44 45/45/45
f 46/46/46 47/47/47 48/48/48
f 49/49/49 50/50/50 51/51/51
f 52/52/52 53/53/53 54/54/54
f 55/55/55 56/56/56 57/57/57
f 58/58/58 59/59/59 60/60/60
f 61/61/61 62/62/62 63/63/63
f 64/64/64 65/65/65 66/66/66
f 67/67/67 68/68/68 69/69/69
f 70/70/70 71/71/71 72/72/72
f 73/73/73 74/74/74 75/75/75
f 76/76/76 77/77/77 78/78/78
f 79/79/79 80/80/80 81/81/81
f 82/82/82 83/83/83 84/84/84
f 85/85/85 86/86/86 87/87/87
f 88/88/88 89/89/89 90/90/90
f 91/91/91 92/92/92 93/93/93
f 94/94/94 95/95/95 96/96/96
g obj_frame_red
usemtl obj_frame_red
f 97/97/97 98/98/98 99/99/99
f 100/100/100 101/101/101 102/102/102
f 103/103/103 104/104/104 105/105/105
f 106/106/106 107/107/107 108/108/108
f 109/109/109 110/110/110 111/111/111
f 112/112/112 113/113/113 114/114/114
f 115/115/115 116/116/116 117/117/117
f 118/118/118 119/119/119 120/120/120
f 121/121/121 122/122/122 123/123/123
f 124/124/124 125/125/125 126/126/126
f 127/127/127 128/128/128 129/129/129
f 130/130/130 131/131/131 132/132/132
f 133/133/133 134/134/134 135/135/135
f 136/136/136 137/137/137 138/138/138
f 139/139/139 140/140/140 141/141/141
f 142/142/142 143/143/143 144/144/144
f 145/145/145 146/146/146 147/147/147
f 148/148/148 149/149/149 150/150/150
f 151/151/151 152/152/152 153/153/153
f 154/154/154 155/155/155 156/156/156
f 157/157/157 158/158/158 159/159/159
f 160/160/160 161/161/161 162/162/162
f 163/163/163 164/164/164 165/165/165
f 166/166/166 167/167/167 168/168/168
f 169/169/169 170/170/170 171/171/171
f 172/172/172 173/173/173 174/174/174
f 175/175/175 176/176/176 177/177/177
f 178/178/178 179/179/179 180/180/180
f 181/181/181 182/182/182 183/183/183
f 184/184/184 185/185/185 186/186/186
f 187/187/187 188/188/188 189/189/189
f 190/190/190 191/191/191 192/192/192
f 193/193/193 194/194/194 195/195/195
f 196/196/196 197/197/197 198/198/198
f 199/199/199 200/200/200 201/201/201
f 202/202/202 203/203/203 204/204/204
f 205/205/205 206/206/206 207/207/207
f 208/208/208 209/209/209 210/210/210
f 211/211/211 212/212/212 213/213/213
f 214/214/214 215/215/215 216/216/216
f 217/217/217 218/218/218 219/219/219
f 220/220/220 221/221/221 222/222/222
f 223/223/223 224/224/224 225/225/225
f 226/226/226 227/227/227 228/228/228
f 229/229/229 230/230/230 231/231/231
f 232/232/232 233/233/233 234/234/234
f 235/235/235 236/236/236 237/237/237
f 238/238/238 239/239/239 240/240/240
f 241/241/241 242/242/242 243/243/243
f 244/244/244 245/245/245 246/246/246
f 247/247/247 248/248/248 249/249/249
f 250/250/250 251/251/251 252/252/252
f 253/253/253 254/254/254 255/255/255
f 256/256/256 257/257/257 258/258/258
f 259/259/259 260/260/260 261/261/261
f 262/262/262 263/263/263 264/264/264
f 265/265/265 266/266/266 267/267/267
f 268/268/268 269/269/269 270/270/270
f 271/271/271 272/272/272 273/273/273
f 274/274/274 275/275/275 276/276/276
f 277/277/277 278/278/278 279/279/279
f 280/280/280 281/281/281 282/282/282
f 283/283/283 284/284/284 285/285/285
f 286/286/286 287/287/287 288/288/288
f 289/289/289 290/290/290 291/291/291
f 292/292/292 293/293/293 294/294/294
f 295/295/295 296/296/296 297/297/297
f 298/298/298 299/299/299 300/300/300
f 301/301/301 302/302/302 303/303/303
f 304/304/304 305/305/305 306/306/306
f 307/307/307 308/308/308 309/309/309
f 310/310/310 311/311/311 312/312/312
f 313/313/313 314/314/314 315/315/315
f 316/316/316 317/317/317 318/318/318
f 319/319/319 320/320/320 321/321/321
f 322/322/322 323/323/323 324/324/324
f 325/325/325 326/326/326 327/327/327
f 328/328/328 329/329/329 330/330/330
f 331/331/331 332/332/332 333/333/333
f 334/334/334 335/335/335 336/336/336
f 337/337/337 338/338/338 339/339/339
f 340/340/340 341/341/341 342/342/342
f 343/343/343 344/344/344 345/345/345
f 346/346/346 347/347/347 348/348/348
f 349/349/349 350/350/350 351/351/351
f 352/352/352 353/353/353 354/354/354
f 355/355/355 356/356/356 357/357/357
f 358/358/358 359/359/359 360/360/360
f 361/361/361 362/362/362 363/363/363
f 364/364/364 365/365/365 366/366/366
f 367/367/367 368/368/368 369/369/369
f 370/370/370 371/371/371 372/372/372
f 373/373/373 374/374/374 375/375/375
f 376/376/376 377/377/377 378/378/378
f 379/379/379 380/380/380 381/381/381
f 382/382/382 383/383/383 384/384/384
f 385/385/385 386/386/386 387/387/387
f 388/388/388 389/389/389 390/390/390
f 391/391/391 392/392/392 393/393/393
f 394/394/394 395/395/395 396/396/396
f 397/397/397 398/398/398 399/399/399
f 400/400/400 401/401/401 402/402/402
f 403/403/403 404/404/404 405/405/405
f 406/406/406 407/407/407 408/408/408
f 409/409/409 410/410/410 411/411/411
f 412/412/412 413/413/413 414/414/414
f 415/415/415 416/416/416 417/417/417
f 418/418/418 419/419/419 420/420/420
f 421/421/421 422/422/422 423/423/423
f 424/424/424 425/425/425 426/426/426
